<?xml version="1.0" encoding="utf-8"?>
<!-- Generator: Adobe Illustrator 21.0.0, SVG Export Plug-In . SVG Version: 6.00 Build 0)  -->
<svg version="1.1" id="Layer_1" xmlns="http://www.w3.org/2000/svg" xmlns:xlink="http://www.w3.org/1999/xlink" x="0px" y="0px"
	 viewBox="0 0 307 88" style="enable-background:new 0 0 307 88;" xml:space="preserve">
<style type="text/css">
	.st0{fill:#EE3124;}
	.st1{fill:#FFFFFF;}
</style>
<g>
	<g>
		<g>
			<rect width="307" height="88"/>
			<polygon class="st0" points="59.5,10.4 86.5,10.4 86.5,74.9 			"/>
			<polygon class="st0" points="40.4,10.4 13.3,10.4 13.3,74.9 			"/>
			<polygon class="st0" points="49.9,34.2 67.2,74.9 55.9,74.9 50.7,62 38.1,62 			"/>
			<path class="st1" d="M119.4,59.5l-2.9,14.7h-10.8l13.5-61.3h13.2l12.2,61.3h-10.9l-2.9-14.7H119.4z M129.9,50.8l-2.2-13.3
				c-0.6-3.8-1.5-9.8-2.1-13.9h-0.2c-0.7,4.2-1.6,10.3-2.3,14l-2.4,13.3H129.9z"/>
			<path class="st1" d="M180.3,11.3v50.2c0,4,0.2,8.9,0.4,12.7h-9.6l-0.6-5.1h-0.2c-1.6,3.2-5.1,5.8-9.3,5.8
				c-9.2,0-13.7-10.1-13.7-22.8c0-15.5,6.8-23.1,14.2-23.1c3.9,0,6.4,1.9,7.6,4.6h0.2V11.3H180.3z M169.2,46.8c0-0.8,0-1.8-0.2-2.6
				c-0.4-3-2-5.8-4.6-5.8c-4.5,0-6.1,6.4-6.1,13.9c0,8.6,2.3,13.5,5.9,13.5c1.7,0,3.5-0.9,4.6-4.5c0.2-0.7,0.4-1.7,0.4-2.8V46.8z"/>
			<path class="st1" d="M203.2,74.9c-10.2,0-16.6-8.2-16.6-22.8c0-16,8.2-23.1,16.9-23.1c10.1,0,16.4,8.6,16.4,22.8
				C219.9,70.2,210,74.9,203.2,74.9L203.2,74.9z M203.4,66.5c4.2,0,5.3-8,5.3-14.5c0-6.3-1-14.4-5.5-14.4c-4.7,0-5.7,8.2-5.7,14.4
				C197.6,59.5,198.8,66.5,203.4,66.5L203.4,66.5z"/>
			<path class="st1" d="M226.1,11.3h11.1v23.2h0.2c2.2-3.4,5.1-5.4,9.3-5.4c8.4,0,12.6,9.5,12.6,21.9c0,15.7-6.3,24-14.4,24
				c-3.9,0-6.5-1.7-8.8-6h-0.2l-0.6,5.3h-9.5c0.2-3.7,0.4-8.7,0.4-12.7V11.3z M237.2,58.4c0,1.1,0.2,2.1,0.4,2.8
				c1.1,3.7,3,4.6,4.5,4.6c4.3,0,6-5.4,6-14.1c0-7.9-1.8-13.3-6.1-13.3c-2.1,0-3.9,2.3-4.5,4.7c-0.2,0.8-0.4,2-0.4,2.8V58.4z"/>
			<path class="st1" d="M274.6,55.6c0.1,8,4.4,10.6,9.6,10.6c3.3,0,6.2-0.7,8.3-1.5l1.5,8c-2.9,1.3-7.5,2.1-11.8,2.1
				c-11.9,0-18.4-8.1-18.4-21.9c0-14.9,7.5-23.8,17.4-23.8c9.5,0,14.8,7.9,14.8,20.8c0,2.9-0.1,4.6-0.3,5.9L274.6,55.6z M285.8,47.8
				c0.1-6.2-1.8-10.6-5.3-10.6c-4,0-5.7,5.9-5.9,10.6H285.8z"/>
		</g>
	</g>
	<path d="M93.3,10.2c1.9,0,3.4,1.5,3.4,3.4c0,1.9-1.5,3.4-3.4,3.4c-1.9,0-3.5-1.5-3.5-3.4C89.8,11.8,91.3,10.2,93.3,10.2L93.3,10.2z
		 M93.2,10.8c-1.5,0-2.7,1.3-2.7,2.9c0,1.6,1.2,2.9,2.8,2.9c1.5,0,2.7-1.3,2.7-2.9C96,12.1,94.8,10.8,93.2,10.8L93.2,10.8z
		 M92.6,15.7h-0.7v-3.8c0.3,0,0.6-0.1,1.1-0.1c0.6,0,1,0.1,1.2,0.3c0.2,0.2,0.3,0.4,0.3,0.8c0,0.5-0.3,0.8-0.7,0.9v0
		c0.3,0.1,0.6,0.4,0.6,0.9c0.1,0.6,0.2,0.8,0.2,0.9h-0.7c-0.1-0.1-0.2-0.5-0.2-1C93.7,14.2,93.5,14,93,14h-0.4V15.7z M92.6,13.5H93
		c0.5,0,0.9-0.2,0.9-0.6c0-0.3-0.2-0.6-0.9-0.6c-0.2,0-0.3,0-0.4,0V13.5z"/>
</g>
</svg>
