<?xml version="1.0" encoding="utf-8"?>
<!-- Generator: Adobe Illustrator 21.0.0, SVG Export Plug-In . SVG Version: 6.00 Build 0)  -->
<svg version="1.1" id="Layer_1" xmlns="http://www.w3.org/2000/svg" xmlns:xlink="http://www.w3.org/1999/xlink" x="0px" y="0px"
	 viewBox="0 0 220.5 287.2" style="enable-background:new 0 0 220.5 287.2;" xml:space="preserve">
<style type="text/css">
	.st0{fill:#FFFFFF;}
</style>
<g>
	<path class="st0" d="M25.3,171.2c0-15.6,0-17.6-10.8-24.8l-3.6-2.4c-1.6-1.6-1.6-6,0.4-7.2c9.2-3.2,32-13.6,41.2-19.6
		c2,0,3.6,0.8,4,2.4c-0.8,14-1.6,33.2-1.6,49.6v72c0,28.8,0.8,32.8,15.2,34.8l8.4,1.2c2.8,2,2,8.8-0.8,10c-12-0.8-23.6-1.2-37.6-1.2
		c-14.4,0-26.4,0.4-37.6,1.2c-2.8-1.2-3.6-8-0.8-10l8.4-1.2c14.8-2,15.2-6,15.2-34.8V171.2z M58.5,57.2c0,14.4-10,20.8-21.2,20.8
		c-12.4,0-20.4-9.2-20.4-20c0-13.2,9.6-21.6,21.6-21.6C50.5,36.4,58.5,46,58.5,57.2z"/>
	<path class="st0" d="M133.3,145.2c-6.8,0-6.8,0.8-6.8,11.6v84.4c0,28.8,0.8,33.6,15.2,34.8l14.4,1.2c2.8,2,2,8.8-0.8,10
		c-18-0.8-29.6-1.2-43.6-1.2c-14.4,0-26.4,0.4-38.4,1.2c-2.8-1.2-3.6-8-0.8-10l9.2-1.2c14.8-2,15.2-6,15.2-34.8v-84.4
		c0-10.8,0-11.6-8-11.6h-14c-2.4-1.6-2.8-5.2-1.2-7.6l17.2-8.4c3.2-1.6,6-4,6-8c0-23.2,2.8-48,12.4-70.4C119.3,28,141.7,0,181.3,0
		c21.2,0,39.2,9.6,39.2,24c0,8-7.6,14.4-15.2,14.4c-4.4,0-6.8-1.6-9.6-4.8c-7.6-8.8-18.8-17.6-32-17.6c-12.4,0-22.4,7.6-28.4,22
		c-7.2,18.4-8.8,47.6-8.8,67.6v11.6c0,10.8,0,11.2,6.8,11.2h45.6c4.4,4,1.6,15.2-2.8,16.8H133.3z"/>
</g>
</svg>
